<?xml version="1.0" standalone="no"?>
<!DOCTYPE svg PUBLIC "-//W3C//DTD SVG 20010904//EN"
 "http://www.w3.org/TR/2001/REC-SVG-20010904/DTD/svg10.dtd">
<svg version="1.0" xmlns="http://www.w3.org/2000/svg"
 width="480.000000pt" height="480.000000pt" viewBox="0 0 480.000000 480.000000"
 preserveAspectRatio="xMidYMid meet">
<metadata>
Created by potrace 1.11, written by Peter Selinger 2001-2013
</metadata>
<g transform="translate(0.000000,480.000000) scale(0.100000,-0.100000)"
fill="#000000" stroke="none">
<path d="M3775 4015 c-27 -8 -104 -33 -170 -55 -66 -23 -183 -64 -260 -90 -77
-27 -187 -65 -245 -85 -58 -21 -206 -72 -330 -115 -124 -43 -298 -104 -387
-135 -90 -31 -171 -57 -180 -57 -18 -1 -173 8 -283 17 -30 2 -95 7 -145 10
-49 3 -117 8 -150 10 -33 2 -91 6 -130 9 -38 3 -113 8 -165 11 -52 3 -124 8
-160 10 -36 3 -99 7 -140 10 -41 3 -104 7 -140 10 -426 31 -470 27 -577 -54
-96 -74 -139 -168 -142 -314 -1 -29 -10 -47 -39 -80 -86 -94 -102 -165 -74
-330 l14 -88 -35 -70 c-34 -65 -36 -75 -33 -147 2 -66 9 -90 44 -165 l41 -87
-2 -128 c-1 -118 0 -131 25 -184 14 -31 47 -77 71 -102 41 -40 46 -51 57 -118
6 -40 18 -95 27 -121 19 -61 105 -155 166 -182 42 -18 48 -26 83 -105 65 -147
111 -200 214 -248 40 -18 78 -26 137 -30 92 -5 84 -7 443 118 113 40 216 76
230 80 14 4 117 40 230 80 113 40 275 96 360 125 85 30 215 75 288 100 l134
47 111 -7 c62 -3 132 -8 157 -10 25 -2 92 -7 150 -10 58 -4 125 -8 150 -10 25
-3 86 -7 135 -10 50 -3 119 -7 155 -10 36 -2 106 -7 155 -10 50 -4 113 -8 140
-10 28 -2 88 -6 135 -9 47 -4 121 -9 165 -12 189 -12 270 -13 313 -2 101 25
197 104 239 195 24 52 27 67 37 171 4 44 12 60 47 100 82 93 95 156 66 330
l-16 93 28 42 c16 23 31 54 34 68 25 101 18 142 -45 278 -33 73 -37 89 -32
135 18 167 -5 250 -95 350 -34 37 -51 65 -52 84 0 15 -2 34 -4 42 -1 8 -5 32
-9 52 -15 92 -83 184 -174 236 -51 28 -57 36 -107 138 -29 60 -67 123 -84 141
-93 93 -250 134 -376 98z"/>
</g>
</svg>
